<!DOCTYPE svg PUBLIC "-//W3C//DTD SVG 20010904//EN" "http://www.w3.org/TR/2001/REC-SVG-20010904/DTD/svg10.dtd">
<svg version="1.0" xmlns="http://www.w3.org/2000/svg" width="245px" height="74px" viewBox="0 0 2450 740" preserveAspectRatio="xMidYMid meet">
<g id="layer101" fill="#1a171b" stroke="none">
 <path d="M192 652 c-63 -23 -116 -64 -157 -121 -26 -37 -30 -53 -33 -120 -3 -63 0 -87 18 -129 29 -67 111 -144 197 -185 59 -27 81 -32 169 -35 161 -6 256 33 328 135 24 35 30 56 37 125 4 46 16 108 27 138 l21 55 0 -197 1 -198 55 0 55 0 0 220 0 220 -110 0 c-90 0 -112 -3 -116 -15 -5 -12 -15 -8 -46 21 -22 20 -70 50 -107 67 -59 29 -77 32 -176 35 -88 2 -121 -1 -163 -16z"/>
 <path d="M1015 551 c-53 -24 -75 -64 -75 -138 0 -99 51 -153 144 -153 69 0 76 5 76 60 l0 48 -30 -15 c-28 -13 -33 -13 -55 1 -33 21 -42 60 -21 90 21 33 52 41 81 22 l25 -16 0 50 c0 45 -3 52 -26 60 -37 15 -74 12 -119 -9z"/>
 <path d="M1613 560 c-34 -11 -63 -43 -63 -71 0 -27 90 -31 111 -6 11 14 22 18 38 12 35 -11 19 -29 -40 -43 -71 -18 -99 -44 -99 -94 0 -28 7 -46 25 -63 21 -22 33 -25 95 -25 66 0 74 2 101 29 16 16 29 34 29 40 0 5 -20 13 -45 17 -36 5 -50 3 -65 -11 -19 -17 -50 -15 -50 4 0 9 34 21 63 21 37 0 87 32 94 59 6 21 9 15 14 -34 6 -51 12 -64 43 -92 31 -29 42 -33 91 -33 59 0 107 18 124 47 9 15 10 12 11 -14 0 -26 4 -33 20 -33 16 0 20 -7 20 -30 0 -47 39 -80 94 -80 65 0 73 5 68 45 -3 28 -9 34 -30 37 -41 5 -40 28 2 28 30 0 35 -3 38 -27 2 -20 14 -34 43 -50 22 -13 43 -23 48 -23 4 0 7 23 7 50 0 47 2 50 25 50 23 0 25 4 25 45 0 41 -2 45 -25 45 -24 0 -25 3 -25 61 0 60 1 61 25 57 23 -5 25 -3 25 37 0 36 -4 44 -22 49 -42 11 -75 6 -102 -15 -24 -19 -26 -26 -26 -105 l0 -84 -35 0 -35 0 0 100 0 100 -50 0 -50 0 0 -100 c0 -75 -3 -100 -13 -100 -9 0 -13 17 -13 53 0 100 -49 152 -143 152 -61 0 -114 -28 -126 -65 -9 -27 -22 -25 -29 5 -4 14 -17 32 -30 41 -30 19 -120 27 -163 14z m375 -92 c26 -26 8 -118 -23 -118 -38 0 -59 66 -35 111 12 21 40 25 58 7z"/>
 <path d="M1190 415 l0 -145 50 0 c39 0 50 4 50 16 0 13 5 12 26 -5 15 -12 41 -21 60 -21 l34 0 0 50 0 50 -38 0 c-59 0 -72 21 -72 118 l0 82 -55 0 -55 0 0 -145z"/>
 <path d="M1420 415 l0 -145 55 0 55 0 0 145 0 145 -55 0 -55 0 0 -145z"/>
 <path d="M1427 222 c-23 -25 -21 -58 3 -82 24 -24 48 -25 78 -4 26 18 30 65 6 88 -21 22 -67 20 -87 -2z"/>
 </g>
<g id="layer102" fill="#DAE14A" stroke="none">
 <path d="M192 652 c-63 -23 -116 -64 -157 -121 -26 -37 -30 -53 -33 -120 -3 -63 0 -87 18 -129 29 -67 111 -144 197 -185 59 -27 81 -32 169 -35 161 -6 256 33 328 136 25 35 30 55 35 122 7 94 -4 124 -82 214 -35 40 -68 65 -124 93 -73 36 -82 38 -187 41 -88 2 -122 -1 -164 -16z"/>
 <path d="M1427 222 c-23 -25 -21 -58 3 -82 24 -24 48 -25 78 -4 26 18 30 65 6 88 -21 22 -67 20 -87 -2z"/>
 </g>
<!-- <g id="layer103" fill="#f6bc78" stroke="none">
 <path d="M384 536 c3 -13 8 -31 12 -39 3 -8 -2 -17 -10 -20 -11 -5 -17 3 -22 28 -6 32 -9 35 -40 35 -32 0 -34 -2 -34 -35 0 -32 -2 -35 -29 -35 -26 0 -30 4 -33 33 -3 29 -6 32 -40 35 -37 3 -38 3 -38 -32 0 -32 -3 -35 -32 -38 -30 -3 -33 -6 -36 -40 -3 -37 -3 -38 32 -38 33 0 36 -2 36 -30 0 -28 -3 -30 -35 -30 -34 0 -35 -1 -35 -40 0 -39 1 -40 35 -40 33 0 35 -2 35 -35 0 -34 1 -35 40 -35 39 0 40 1 40 35 0 33 2 35 35 35 33 0 35 2 35 34 0 32 3 35 33 38 28 3 32 7 35 36 3 29 6 32 36 32 31 0 33 -2 55 -72 13 -40 32 -97 43 -125 l19 -53 72 0 72 0 46 129 45 129 -19 39 c-11 21 -27 46 -35 56 -15 17 -17 17 -28 2 -9 -13 -27 -15 -84 -13 l-72 3 -12 35 c-11 34 -12 35 -70 38 -58 3 -58 3 -52 -22z m-164 -106 c0 -27 -3 -30 -30 -30 -27 0 -30 3 -30 30 0 27 3 30 30 30 27 0 30 -3 30 -30z m140 0 c0 -27 -3 -30 -30 -30 -27 0 -30 3 -30 30 0 27 3 30 30 30 27 0 30 -3 30 -30z m-70 -70 c0 -27 -3 -30 -30 -30 -27 0 -30 3 -30 30 0 27 3 30 30 30 27 0 30 -3 30 -30z m350 28 c0 -2 -11 -38 -23 -82 l-23 -78 -22 75 c-12 41 -22 78 -22 81 0 3 20 6 45 6 25 0 45 -1 45 -2z m-420 -98 c0 -27 -3 -30 -30 -30 -27 0 -30 3 -30 30 0 27 3 30 30 30 27 0 30 -3 30 -30z"/>
 </g>
<g id="layer104" fill="#fbdcb7" stroke="none">
 <path d="M395 510 c14 -40 14 -40 -10 -40 -22 0 -25 4 -25 36 0 34 -1 35 -32 32 -29 -3 -33 -7 -36 -35 -2 -24 -9 -33 -28 -37 -34 -9 -44 0 -44 35 0 27 -3 29 -35 29 -33 0 -35 -2 -35 -35 0 -33 -2 -35 -35 -35 -33 0 -35 -2 -35 -35 0 -33 2 -35 35 -35 33 0 35 -2 35 -35 0 -30 3 -35 23 -35 33 0 45 12 49 45 3 26 8 30 36 33 31 3 32 2 32 -32 0 -35 -1 -36 -36 -36 -34 0 -35 -1 -32 -32 3 -29 7 -33 35 -36 29 -3 32 -1 35 30 3 29 7 33 36 36 29 3 32 6 32 38 0 35 1 35 38 32 l37 -3 44 -127 44 -128 71 0 71 1 40 120 c22 67 43 123 47 125 9 6 -35 96 -55 112 -12 10 -16 9 -21 -3 -4 -12 -23 -15 -85 -15 l-80 0 -7 35 -6 35 -59 0 -58 0 14 -40z m-35 -75 c0 -33 -2 -35 -35 -35 -32 0 -35 3 -35 28 0 36 6 42 42 42 25 0 28 -3 28 -35z m-140 -11 c0 -34 -1 -35 -32 -32 -29 3 -33 7 -36 36 -3 31 -2 32 32 32 35 0 36 -1 36 -36z m401 -115 l-26 -90 -27 83 c-14 46 -27 86 -27 91 -1 4 23 7 53 7 l54 0 -27 -91z"/>
 <path d="M90 285 c0 -33 2 -35 35 -35 32 0 35 -2 35 -30 0 -28 3 -30 35 -30 33 0 35 2 35 35 0 33 -2 35 -34 35 -29 0 -34 4 -39 30 -6 25 -11 30 -37 30 -28 0 -30 -3 -30 -35z"/>
 </g> -->
<g id="layer105" fill="#fffefe" stroke="none">
 <path d="M394 526 c3 -13 9 -31 12 -40 5 -12 0 -16 -20 -16 -22 0 -26 4 -26 30 0 28 -3 30 -35 30 -32 0 -35 -2 -35 -30 0 -28 3 -30 35 -30 33 0 35 -2 35 -35 0 -34 1 -35 39 -35 l38 0 42 -124 43 -124 73 -4 c40 -2 73 -1 72 2 -2 10 65 205 79 226 11 19 9 28 -24 80 -25 41 -38 54 -40 42 -3 -16 -15 -18 -87 -18 l-84 0 -9 33 c-8 30 -11 32 -61 35 -52 3 -53 3 -47 -22z m256 -128 c0 -2 -13 -43 -28 -93 l-29 -90 -26 86 c-15 48 -27 90 -27 93 0 3 25 6 55 6 30 0 55 -1 55 -2z"/>
 <path d="M150 500 c0 -28 3 -30 35 -30 32 0 35 2 35 30 0 28 -3 30 -35 30 -32 0 -35 -2 -35 -30z"/>
 <path d="M90 430 c0 -27 3 -30 30 -30 27 0 30 3 30 30 0 27 -3 30 -30 30 -27 0 -30 -3 -30 -30z"/>
 <path d="M222 433 c2 -23 8 -29 36 -31 30 -3 32 -1 32 27 0 29 -3 31 -36 31 -33 0 -35 -2 -32 -27z"/>
 <path d="M160 360 c0 -27 3 -30 30 -30 27 0 30 3 30 30 0 27 -3 30 -30 30 -27 0 -30 -3 -30 -30z"/>
 <path d="M300 360 c0 -27 3 -30 30 -30 27 0 30 3 30 30 0 27 -3 30 -30 30 -27 0 -30 -3 -30 -30z"/>
 <path d="M90 290 c0 -27 3 -30 30 -30 27 0 30 3 30 30 0 27 -3 30 -30 30 -27 0 -30 -3 -30 -30z"/>
 <path d="M230 290 c0 -27 3 -30 30 -30 27 0 30 3 30 30 0 27 -3 30 -30 30 -27 0 -30 -3 -30 -30z"/>
 <path d="M160 220 c0 -27 3 -30 30 -30 27 0 30 3 30 30 0 27 -3 30 -30 30 -27 0 -30 -3 -30 -30z"/>
 </g>

</svg>